<svg width="201" height="187" viewBox="0 0 201 187" fill="none" xmlns="http://www.w3.org/2000/svg">
<path fill-rule="evenodd" clip-rule="evenodd" d="M102.985 1.43094C121.922 1.75883 142.933 -1.75947 157.785 9.18128C172.499 20.0195 171.124 40.4567 178.016 56.7016C185.559 74.4791 205.613 90.356 200.033 108.751C194.462 127.113 167.646 129.884 152.058 142.273C134.428 156.283 125.643 181.32 102.985 185.877C79.3541 190.631 54.639 179.604 35.6352 165.692C17.0717 152.101 1.52408 132.47 0.0624678 110.528C-1.29645 90.1269 19.877 75.6753 28.3839 56.8316C35.8385 40.3191 31.6425 18.4274 46.6836 7.25753C61.8152 -3.97955 83.6321 1.09584 102.985 1.43094Z" fill="#363636"/>
<path d="M66.983 64.711C66.983 64.711 61.2219 66.99 60.3747 72.5258C59.5274 78.0615 72.6187 94.2774 72.6187 94.2774L112.991 72.5224L100.226 50.1218L66.983 64.711Z" fill="#C7DCF9"/>
<path d="M75.9093 69.9434C75.9093 69.9434 71.6614 74.3049 70.3583 79.1307C69.0553 83.9565 68.8876 92.5744 69.1045 95.8023C75.4417 101.667 100.491 96.7529 100.491 96.7529L124.63 68.3574C124.63 68.3574 120.538 60.5884 118.46 58.4585C116.383 56.3286 109.649 53.6801 101.88 56.8064C97.3204 63.2775 75.9093 69.9434 75.9093 69.9434Z" fill="#E1ECFF"/>
<g style="mix-blend-mode:multiply">
<path d="M74.0133 72.1987C74.0133 72.1987 83.3852 75.2063 93.9348 71.1312C104.484 67.0561 106.396 55.5779 106.396 55.5779L101.875 56.808L75.9093 69.9434L74.0133 72.1987Z" fill="#E1ECFF"/>
</g>
<path d="M112.165 107.408C112.165 107.408 124.015 107.484 127.344 108.335C130.674 109.185 139.487 129.13 143.133 131.04C146.779 132.95 149.877 129.778 153.894 127.422C157.912 125.067 161.594 122.217 161.709 121.028C161.824 119.838 160.118 115.085 158.642 114.126C157.166 113.167 152.881 113.099 150.595 114.563C147.237 105.413 142.462 92.0696 138.084 90.2328C133.705 88.3961 120.436 87.5217 120.436 87.5217L112.165 107.408Z" fill="#E1ECFF"/>
<g style="mix-blend-mode:multiply" opacity="0.51">
<path d="M124.63 98.6743C124.63 98.6743 134.278 99.73 136.943 103.32C139.609 106.911 144.89 128.881 150.802 129.401C150.897 136.518 138.653 139.089 138.653 139.089L109.303 106.477L124.63 98.6743Z" fill="#E1ECFF"/>
</g>
<path d="M80.3301 105.608C80.3301 105.608 87.6163 120.89 94.2246 125.059C100.833 129.227 112.806 128.89 116.108 131.619C119.411 134.349 118.713 147.463 122.013 150.936C125.314 154.41 129.959 156.538 134.3 156.147C138.641 155.755 142.115 153.673 142.159 151.719C142.203 149.765 142.028 148.071 139.988 147.029C137.948 145.987 135.074 145.119 134.951 143.904C134.827 142.689 132.519 124.193 131.562 119.165C130.604 114.138 123.169 107.145 113.587 103.622C104.513 96.0243 90.5765 99.2793 90.5765 99.2793L80.3301 105.608Z" fill="#E1ECFF"/>
<g style="mix-blend-mode:multiply">
<path d="M82.4499 109.697C82.4499 109.697 90.812 110.124 98.3218 106.825C96.8866 99.1828 92.459 96.9258 92.459 96.9258L80.3301 105.608L82.4499 109.697Z" fill="#E1ECFF"/>
</g>
<path d="M94.0212 29.8901C87.4722 26.3843 73.7472 25.2016 65.275 35.7089C56.8028 46.2161 61.0253 57.1131 64.5854 62.1862C68.3131 67.5102 81.1265 75.6469 94.8024 68.005C108.478 60.363 109.912 38.3996 94.0212 29.8901Z" fill="#E1ECFF"/>
<path d="M92.8945 36.3155C98.7115 37.7049 102.49 45.8671 100.536 53.6818C98.5827 61.4966 91.8524 66.7511 84.2985 66.7935C76.7447 66.8358 69.2332 61.6779 69.2739 52.0331C69.3146 42.7645 80.2624 33.2994 92.8945 36.3155Z" fill="#1C3177"/>
<g style="mix-blend-mode:multiply">
<path d="M76.1347 97.3596C83.7139 93.8419 78.0443 85.8103 85.5999 83.9836C95.5615 85.4002 98.3167 84.8919 98.3167 84.8919C98.3167 84.8919 79.2593 101.63 76.1347 97.3596Z" fill="#E1ECFF"/>
</g>
<path d="M82.4499 75.8773L95.0633 108.334L112.908 107.909L129.232 97.5764L134.095 82.8144L122.286 47.387L116.554 63.9722L101.706 75.7807L82.4499 75.8773Z" fill="#F77F00"/>
<path d="M76.1347 97.3595C80.3166 97.0206 82.4465 94.2976 83.714 93.0895C84.3595 92.4727 84.2308 91.9322 83.9054 90.153C83.5801 88.3738 84.7086 86.5489 86.2505 85.7678C87.0978 88.0468 88.1381 88.4789 88.9413 88.3721C89.7445 88.2654 90.5697 83.4667 93.1961 83.5091C95.8224 83.5514 97.9286 87.0267 98.2794 88.7619C98.6301 90.497 96.934 95.4464 94.8058 98.92C92.6776 102.394 89.675 106.694 82.9159 108.04C76.1567 109.385 72.3137 105.933 70.0991 101.57C69.3518 100.098 69.0824 98.0626 69.1061 95.7955C69.1061 95.7955 70.6193 97.7932 76.1347 97.3595Z" fill="#E1ECFF"/>
<path d="M126.353 59.5886C126.353 59.5886 127.158 62.2065 126.616 63.2266C126.073 64.2466 125.335 65.0905 124.792 66.3969C124.25 67.7033 125.053 72.6273 127.441 73.4729C129.828 74.3184 131.804 72.1055 132.434 70.8245C133.065 69.5435 132.716 66.18 131.782 63.8349C130.848 61.4898 129.093 59.4056 126.353 59.5886Z" fill="#E1ECFF"/>
<path d="M129.098 27.0621L129.633 28.1466C129.665 28.2123 129.713 28.2692 129.772 28.3123C129.831 28.3554 129.9 28.3834 129.972 28.3939L131.17 28.5634C131.254 28.5754 131.333 28.6106 131.397 28.6651C131.462 28.7196 131.51 28.7911 131.536 28.8716C131.563 28.952 131.566 29.0382 131.545 29.1203C131.525 29.2024 131.482 29.2772 131.421 29.3361L130.555 30.1833C130.503 30.2343 130.463 30.2974 130.44 30.3671C130.418 30.4367 130.412 30.5109 130.425 30.5832L130.628 31.7693C130.642 31.8525 130.633 31.938 130.602 32.0162C130.57 32.0945 130.517 32.1623 130.449 32.212C130.38 32.2617 130.3 32.2913 130.215 32.2975C130.131 32.3038 130.047 32.2863 129.972 32.2471L128.9 31.6846C128.835 31.6503 128.763 31.6324 128.69 31.6324C128.616 31.6324 128.544 31.6503 128.479 31.6846L127.407 32.2471C127.332 32.2867 127.248 32.3046 127.163 32.2986C127.079 32.2926 126.998 32.2631 126.929 32.2133C126.861 32.1635 126.807 32.0955 126.776 32.017C126.744 31.9385 126.735 31.8527 126.749 31.7693L126.954 30.5832C126.967 30.5109 126.961 30.4367 126.939 30.3671C126.916 30.2974 126.877 30.2343 126.824 30.1833L125.958 29.3361C125.897 29.2772 125.854 29.2024 125.834 29.1203C125.814 29.0382 125.817 28.952 125.843 28.8716C125.869 28.7911 125.917 28.7196 125.982 28.6651C126.046 28.6106 126.125 28.5754 126.209 28.5634L127.407 28.3939C127.479 28.3834 127.548 28.3554 127.607 28.3123C127.666 28.2692 127.714 28.2123 127.746 28.1466L128.281 27.0621C128.318 26.9855 128.377 26.9209 128.449 26.8758C128.521 26.8306 128.604 26.8066 128.69 26.8066C128.775 26.8066 128.858 26.8306 128.93 26.8758C129.003 26.9209 129.061 26.9855 129.098 27.0621V27.0621Z" fill="#FEC272"/>
<path d="M71.7715 141.825L72.2205 142.735C72.2473 142.79 72.2873 142.838 72.337 142.874C72.3866 142.91 72.4444 142.934 72.5052 142.942L73.51 143.088C73.5801 143.098 73.6458 143.128 73.6999 143.173C73.754 143.219 73.7943 143.279 73.8161 143.346C73.838 143.413 73.8406 143.485 73.8236 143.554C73.8066 143.623 73.7708 143.686 73.7201 143.735L72.9932 144.443C72.9486 144.486 72.9153 144.54 72.8964 144.599C72.8775 144.658 72.8735 144.721 72.8848 144.782L73.0542 145.782C73.0658 145.852 73.0578 145.923 73.0311 145.989C73.0044 146.054 72.9599 146.111 72.9028 146.153C72.8456 146.194 72.778 146.219 72.7075 146.225C72.637 146.23 72.5664 146.216 72.5035 146.183L71.6055 145.711C71.551 145.682 71.4906 145.668 71.4292 145.668C71.3679 145.668 71.3074 145.682 71.253 145.711L70.3583 146.18C70.2955 146.213 70.2247 146.228 70.1539 146.223C70.0831 146.218 70.0152 146.193 69.9578 146.151C69.9005 146.109 69.856 146.052 69.8295 145.986C69.8029 145.92 69.7954 145.848 69.8076 145.778L69.9771 144.779C69.9876 144.718 69.983 144.655 69.9638 144.596C69.9447 144.537 69.9114 144.483 69.867 144.44L69.1417 143.732C69.0911 143.682 69.0552 143.62 69.0382 143.551C69.0213 143.482 69.0239 143.41 69.0457 143.343C69.0676 143.275 69.1078 143.215 69.1619 143.17C69.216 143.124 69.2818 143.095 69.3518 143.084L70.355 142.939C70.4159 142.93 70.4739 142.907 70.5238 142.871C70.5737 142.835 70.614 142.787 70.6413 142.732L71.0903 141.822C71.122 141.758 71.1707 141.705 71.2311 141.668C71.2915 141.631 71.3611 141.611 71.432 141.612C71.5029 141.612 71.5723 141.632 71.6323 141.67C71.6923 141.708 71.7405 141.762 71.7715 141.825V141.825Z" fill="#FEC272"/>
<g style="mix-blend-mode:soft-light" opacity="0.48">
<path d="M87.8168 46.0583C91.9868 45.1392 95.1037 43.1984 94.7786 41.7234C94.4535 40.2484 90.8095 39.7977 86.6394 40.7169C82.4694 41.636 79.3525 43.5768 79.6776 45.0518C80.0027 46.5268 83.6467 46.9775 87.8168 46.0583Z" fill="white"/>
</g>
<g style="mix-blend-mode:multiply">
<path d="M97.3136 93.6283C97.3136 93.6283 92.5166 89.3413 91.6473 89.3413C90.7781 89.3413 88.4635 92.7302 88.9854 93.6283C89.5073 94.5263 92.1879 97.4679 95.1311 98.3727C96.0851 96.5529 97.3136 93.6283 97.3136 93.6283Z" fill="#E1ECFF"/>
</g>
<g style="mix-blend-mode:multiply" opacity="0.5">
<path d="M101.706 75.7807L112.908 107.909L129.232 97.5764L116.554 63.9722L101.706 75.7807Z" fill="#F77F00"/>
</g>
<g style="mix-blend-mode:multiply">
<path d="M132.522 125.302C130.843 126.694 128.957 127.812 126.931 128.619C125.031 129.351 124.389 130.848 124.964 133.597C125.538 136.345 125.86 140.63 127.046 141.759C128.232 142.887 132.312 142.288 134.427 139.665C133.764 134.497 132.522 125.302 132.522 125.302Z" fill="#E1ECFF"/>
</g>
<g style="mix-blend-mode:multiply">
<path d="M143.579 97.2817C143.579 97.2817 141.206 98.3154 141.432 99.964C141.657 101.613 144.08 109.582 145.036 110.3C145.992 111.019 148.82 109.744 148.82 109.744C145.915 101.516 143.579 97.2817 143.579 97.2817Z" fill="#E1ECFF"/>
</g>
<path d="M43.4709 116.351C41.585 112.44 47.7307 108.255 52.9598 108.556C58.1888 108.858 60.3865 113.685 62.2386 115.487C66.107 119.245 65.985 122.922 63.3061 124.503C60.6271 126.084 45.9668 121.524 43.4709 116.351Z" fill="#99ADF9"/>
<path d="M148.96 55.7661C147.435 54.4309 149.004 48.1546 152.607 46.6855C156.209 45.2165 160.682 46.8228 161.638 49.3407C162.594 51.8587 152.086 58.5009 148.96 55.7661Z" fill="#99ADF9"/>
<path d="M166.613 59.1243C165.832 60.2376 165.312 63.4079 166.96 63.9721C168.609 64.5364 169.856 61.2746 169.277 59.5768C168.697 57.8789 167.135 58.3805 166.613 59.1243Z" fill="#99ADF9"/>
<path opacity="0.44" d="M167.799 33.3976C166.569 33.9771 164.541 36.468 165.693 37.7778C166.845 39.0876 169.544 36.8746 169.885 35.1141C170.226 33.3536 168.621 33.0113 167.799 33.3976Z" fill="#99ADF9"/>
<path opacity="0.44" d="M52.1227 132.806C51.0586 131.958 47.929 131.238 47.2614 132.85C46.5938 134.461 49.7725 135.9 51.4975 135.435C53.2224 134.971 52.831 133.372 52.1227 132.806Z" fill="#99ADF9"/>
<g style="mix-blend-mode:multiply" opacity="0.64">
<path d="M61.3117 114.414C59.419 114.77 59.724 116.463 60.3306 117.996C60.9372 119.53 63.0722 119.967 64.5786 118.565C63.6009 116.239 61.3117 114.414 61.3117 114.414Z" fill="#99ADF9"/>
</g>
<g style="mix-blend-mode:multiply" opacity="0.64">
<path d="M50.4317 111.861C49.0761 112.011 47.9713 113.973 48.927 115.565C49.8827 117.156 51.7042 118.315 52.7463 117.881C53.7884 117.447 53.9629 115.102 53.2106 113.597C52.4582 112.093 51.7347 111.715 50.4317 111.861Z" fill="#99ADF9"/>
</g>
<g style="mix-blend-mode:multiply" opacity="0.64">
<path d="M157.409 48.0376C156.665 48.2748 155.911 49.0796 155.977 49.9489C156.043 50.8181 156.802 51.5773 157.626 51.4739C158.449 51.3705 159.151 50.0404 158.981 49.0847C158.812 48.1291 157.976 47.8579 157.409 48.0376Z" fill="#99ADF9"/>
</g>
<g style="mix-blend-mode:multiply" opacity="0.64">
<path d="M149.531 49.7319C149.531 49.7319 150.548 50.7486 150.378 51.9025C150.209 53.0564 148.457 52.9497 148.457 52.9497C148.457 52.9497 148.718 50.9824 149.531 49.7319Z" fill="#99ADF9"/>
</g>
</svg>
